<?xml version="1.0" encoding="utf-8"?>
<!-- Generator: Adobe Illustrator 21.0.2, SVG Export Plug-In . SVG Version: 6.00 Build 0)  -->
<svg version="1.1" id="Layer_1" xmlns="http://www.w3.org/2000/svg" xmlns:xlink="http://www.w3.org/1999/xlink" x="0px" y="0px"
	 viewBox="0 0 100 100" style="enable-background:new 0 0 100 100;" xml:space="preserve" fill="#444">
<path d="M77.6,43.7c-2,0-3.9,0.4-5.7,1l-8.4-17.8h11.8c-0.4,1.5-1.4,3.5-3.5,4.4c-1,0.4-1.6,1.7-1.1,2.7c0.4,1.1,1.6,1.6,2.7,1.2
	c5.9-2.4,6.4-9.1,6.4-10.2c0.1-0.6-0.1-1.1-0.5-1.6c-0.4-0.5-1-0.7-1.6-0.7H60.2c-0.7,0-1.4,0.4-1.7,1c-0.4,0.6-0.4,1.4-0.1,2l4,8.6
	H40.4L35,23.7h12.5c1.1,0,2-0.9,2-2.1c0-1.2-0.9-2.1-2-2.1H24.9c-1.1,0-2,0.9-2,2.1c0,1.2,0.9,2.1,2,2.1h5.4l5.9,11.5l-6.3,10.3
	c-2.3-1.1-4.8-1.8-7.5-1.8c-9.6,0-17.4,8-17.4,17.9s7.8,17.9,17.4,17.9c8.9,0,16.2-6.9,17.3-15.8h4.2h7.7h3.2
	c-0.4,1.5-1.4,3.5-3.5,4.4c-1,0.4-1.6,1.7-1.1,2.7c0.3,0.8,1.1,1.3,1.9,1.3c0.3,0,0.5,0,0.8-0.2c5.9-2.4,6.4-9.1,6.4-10.2
	c0.1-0.6-0.1-1.1-0.5-1.6c-0.4-0.5-1-0.7-1.6-0.7h-2.3l9.7-20.9l3.7,7.9c-4.8,3.2-8,8.7-8,15c0,9.9,7.8,17.9,17.4,17.9
	S95,71.5,95,61.6S87.2,43.7,77.6,43.7z M22.4,75.3c-7.3,0-13.3-6.1-13.3-13.7s6-13.7,13.3-13.7c1.9,0,3.7,0.4,5.3,1.1l-7,11.4
	c-0.4,0.6-0.4,1.5-0.1,2.1c0.4,0.7,1,1.1,1.8,1.1h13.1C34.5,70.3,29,75.3,22.4,75.3z M35.5,59.5h-9.4l5-8.2
	C33.4,53.4,35,56.3,35.5,59.5z M39.6,59.5c-0.5-4.7-2.9-8.9-6.3-11.8l5.1-8.2l10.2,20h-4.8H39.6z M51.7,56.5l-9.2-18h17.5L51.7,56.5
	z M77.6,75.3c-7.3,0-13.3-6.1-13.3-13.7c0-4.6,2.3-8.8,5.7-11.2l5.7,12.2c0.4,0.7,1.1,1.2,1.8,1.2c0.3,0,0.6-0.1,0.9-0.2
	c1-0.5,1.4-1.8,0.9-2.8l-5.7-12.2c1.2-0.4,2.5-0.6,3.9-0.6c7.3,0,13.3,6.1,13.3,13.7S84.9,75.3,77.6,75.3z"/>
</svg>
